# xmcd CD database file
#
# Track frame offsets:
#	150
#	21999
#	43087
#	56963
#	69986
#	95410
#	110378
#	117772
#	131374
#	156060
#	168058
#	183984
#	201286
#	217729
#	230481
#	241354
#	255723
#	272563
#
# Disc length: 3929 seconds
#
# Revision: 0
# Processed by: cddbd v1.5.2PL0 Copyright (c) Steve Scherf et al.
# Submitted via: CDex 1.70beta2
#
DISCID=f40f5712
DTITLE=Robinella and the Cc Stringband - Robinella and the Cc Stringband
DYEAR=2003
DGENRE=Jazz
TTITLE0=No Saint, No Prize
TTITLE1=Love At The Five And Dime
TTITLE2=Quiet Whiskey
TTITLE3=Ready For Times To Get Better
TTITLE4=Turn Me On
TTITLE5=Flashdance...What a Feelin'
TTITLE6=Gospel
TTITLE7=Mistakes
TTITLE8=Blanket For My Soul
TTITLE9=This Can't Be Love
TTITLE10=Break It Down Baby
TTITLE11=Come Back My Way
TTITLE12=Oh So Sexy
TTITLE13=Waiting
TTITLE14=Brand New Key
TTITLE15=Down The Mountain
TTITLE16=I Fall In Love As Much As I Can
TTITLE17=Whippin Wind
EXTD=YEAR: 2003
EXTT0=
EXTT1=
EXTT2=
EXTT3=
EXTT4=
EXTT5=
EXTT6=
EXTT7=
EXTT8=
EXTT9=
EXTT10=
EXTT11=
EXTT12=
EXTT13=
EXTT14=
EXTT15=
EXTT16=
EXTT17=
PLAYORDER=
